<svg xmlns="http://www.w3.org/2000/svg" xmlns:xlink="http://www.w3.org/1999/xlink" viewBox="0 0 430 430" width="430" height="430" preserveAspectRatio="xMidYMid meet" style="width: 100%; height: 100%; transform: translate3d(0px, 0px, 0px); content-visibility: visible;"><defs><clipPath id="__lottie_element_2858"><rect width="430" height="430" x="0" y="0"/></clipPath><clipPath id="__lottie_element_2860"><path d="M0,0 L430,0 L430,430 L0,430z"/></clipPath><g id="__lottie_element_2873"><g transform="matrix(1,0,0,1,215,207)" opacity="1" style="display: block;"><g opacity="1" transform="matrix(1,0,0,1,0,0)"><path fill="rgb(249,201,192)" fill-opacity="1" d=" M124.09400177001953,-102 C123.11399841308594,-102.875 122.00399780273438,-103 120.5,-103 C41.56399917602539,-103 -48.45800018310547,-103 -125,-103 C-134,1 -148.1280059814453,165.28199768066406 -148.1280059814453,165.28199768066406 C-149.13499450683594,176.96200561523438 -139.92599487304688,187 -128.20199584960938,187 C-128.20199584960938,187 128.20199584960938,187 128.20199584960938,187 C139.92599487304688,187 149.13499450683594,176.96200561523438 148.1280059814453,165.28199768066406 C148.1280059814453,165.28199768066406 134.38900756835938,5.517000198364258 125.37699890136719,-98.64700317382812 C125.2509994506836,-100.10900115966797 124.96900177001953,-101.21900177001953 124.09400177001953,-102z"/></g></g></g><g id="__lottie_element_2882"><g transform="matrix(1,0,0,1,215,207)" opacity="1" style="display: block;"><g opacity="1" transform="matrix(1,0,0,1,0,0)"><path fill="rgb(249,201,192)" fill-opacity="1" d=" M144.75,122.875 C64.75,122.875 -66.75,122.875 -144.75,122.875 C-146.375,145.625 -148.1280059814453,165.28199768066406 -148.1280059814453,165.28199768066406 C-149.13499450683594,176.96200561523438 -139.92599487304688,187 -128.20199584960938,187 C-128.20199584960938,187 128.20199584960938,187 128.20199584960938,187 C139.92599487304688,187 149.13499450683594,176.96200561523438 148.1280059814453,165.28199768066406 C148.1280059814453,165.28199768066406 146.25,146.5 144.75,122.875z"/></g></g></g><g id="__lottie_element_2897"><g transform="matrix(1,0,0,1,215,270.78399658203125)" opacity="1" style="display: block;"><path fill="rgb(242,76,0)" fill-opacity="1" d=" M63.284000396728516,-54.069000244140625 C78.90499877929688,-38.448001861572266 78.90499877929688,-13.121000289916992 63.284000396728516,2.5 C63.284000396728516,2.5 0,65.78399658203125 0,65.78399658203125 C0,65.78399658203125 -63.284000396728516,2.5 -63.284000396728516,2.5 C-78.90499877929688,-13.121000289916992 -78.90499877929688,-38.448001861572266 -63.284000396728516,-54.069000244140625 C-47.66299819946289,-69.69000244140625 -22.336999893188477,-69.69000244140625 -6.716000080108643,-54.069000244140625 C-4.007999897003174,-51.361000061035156 -1.7690000534057617,-48.36000061035156 0,-45.16999816894531 C1.7690000534057617,-48.36000061035156 4.007999897003174,-51.361000061035156 6.716000080108643,-54.069000244140625 C22.336999893188477,-69.69000244140625 47.66299819946289,-69.69000244140625 63.284000396728516,-54.069000244140625z"/><g opacity="1" transform="matrix(1,0,0,1,0,0)"/></g></g><mask id="__lottie_element_2897_1" mask-type="alpha"><use xmlns:ns1="http://www.w3.org/1999/xlink" ns1:href="#__lottie_element_2897"/></mask><mask id="__lottie_element_2882_1" mask-type="alpha"><use xmlns:ns2="http://www.w3.org/1999/xlink" ns2:href="#__lottie_element_2882"/></mask><mask id="__lottie_element_2873_1" mask-type="alpha"><use xmlns:ns3="http://www.w3.org/1999/xlink" ns3:href="#__lottie_element_2873"/></mask></defs><g clip-path="url(#__lottie_element_2858)"><g clip-path="url(#__lottie_element_2860)" transform="matrix(1,0,0,1,0,0)" opacity="1" style="display: block;"><g transform="matrix(1,0,0,1,215,207)" opacity="1" style="display: block;"><g opacity="1" transform="matrix(1,0,0,1,0,0)"><path class="secondary" fill="rgb(249,201,192)" fill-opacity="1" d=" M119.5,-103 C40.77799987792969,-103 -44.0629997253418,-103 -121.25,-103 C-122.50399780273438,-103 -123.03299713134766,-102.95999908447266 -124.06199645996094,-102.25 C-124.81999969482422,-101.72699737548828 -125.15799713134766,-101.1709976196289 -125.23799896240234,-100.2490005493164 C-134.2469940185547,3.869999885559082 -144.8780059814453,127.28199768066406 -144.8780059814453,127.28199768066406 C-145.88499450683594,138.96200561523438 -136.47300720214844,143 -124.75,143 C-124.75,143 114.90299987792969,181 114.90299987792969,181 C126.62699890136719,181 135.63499450683594,176.96200561523438 134.6280059814453,165.28199768066406 C134.6280059814453,165.28199768066406 128.5,1 119.5,-103z"/><path class="secondary" fill="rgb(249,201,192)" fill-opacity="0.5" d=" M119.5,-103 C40.77799987792969,-103 -44.0629997253418,-103 -121.25,-103 C-122.50399780273438,-103 -123.03299713134766,-102.95999908447266 -124.06199645996094,-102.25 C-124.81999969482422,-101.72699737548828 -125.15799713134766,-101.1709976196289 -125.23799896240234,-100.2490005493164 C-134.2469940185547,3.869999885559082 -144.8780059814453,127.28199768066406 -144.8780059814453,127.28199768066406 C-145.88499450683594,138.96200561523438 -136.47300720214844,143 -124.75,143 C-124.75,143 114.90299987792969,181 114.90299987792969,181 C126.62699890136719,181 135.63499450683594,176.96200561523438 134.6280059814453,165.28199768066406 C134.6280059814453,165.28199768066406 128.5,1 119.5,-103z" style="mix-blend-mode: multiply;"/></g></g><g mask="url(#__lottie_element_2873_1)" style="display: block;"><g transform="matrix(1,0,0,1,250,207)" opacity="1"><g opacity="1" transform="matrix(1,0,0,1,0,0)"><path class="secondary" fill="rgb(249,201,192)" fill-opacity="1" d=" M125,-103 C45,-103 -47,-103 -125,-103 C-134,1 -148.1280059814453,165.28199768066406 -148.1280059814453,165.28199768066406 C-149.13499450683594,176.96200561523438 148.25599670410156,118.28199768066406 148.25599670410156,118.28199768066406 C148.25599670410156,118.28199768066406 134,1 125,-103z"/></g></g></g><g transform="matrix(1,0,0,1,215,207)" opacity="1" style="display: block;"><g opacity="1" transform="matrix(1,0,0,1,0,0)"><path class="secondary" fill="rgb(249,201,192)" fill-opacity="1" d=" M144.75,122.875 C64.75,122.875 -66.75,122.875 -144.75,122.875 C-146.375,145.625 -148.1280059814453,165.28199768066406 -148.1280059814453,165.28199768066406 C-149.13499450683594,176.96200561523438 -139.92599487304688,187 -128.20199584960938,187 C-128.20199584960938,187 128.20199584960938,187 128.20199584960938,187 C139.92599487304688,187 149.13499450683594,176.96200561523438 148.1280059814453,165.28199768066406 C148.1280059814453,165.28199768066406 146.25,146.5 144.75,122.875z"/><path class="secondary" fill="rgb(249,201,192)" fill-opacity="0.5" d=" M144.75,122.875 C64.75,122.875 -66.75,122.875 -144.75,122.875 C-146.375,145.625 -148.1280059814453,165.28199768066406 -148.1280059814453,165.28199768066406 C-149.13499450683594,176.96200561523438 -139.92599487304688,187 -128.20199584960938,187 C-128.20199584960938,187 128.20199584960938,187 128.20199584960938,187 C139.92599487304688,187 149.13499450683594,176.96200561523438 148.1280059814453,165.28199768066406 C148.1280059814453,165.28199768066406 146.25,146.5 144.75,122.875z" style="mix-blend-mode: multiply;"/></g></g><g mask="url(#__lottie_element_2882_1)" style="display: block;"><g transform="matrix(1,0,0,1,250,207)" opacity="1"><g opacity="1" transform="matrix(1,0,0,1,0,0)"><path class="secondary" fill="rgb(249,201,192)" fill-opacity="1" d=" M125,-103 C45,-103 -47,-103 -125,-103 C-134,1 -148.1280059814453,165.28199768066406 -148.1280059814453,165.28199768066406 C-149.13499450683594,176.96200561523438 -139.92599487304688,187 -128.20199584960938,187 C-128.20199584960938,187 128.20199584960938,187 128.20199584960938,187 C139.92599487304688,187 149.13499450683594,176.96200561523438 148.1280059814453,165.28199768066406 C148.1280059814453,165.28199768066406 134,1 125,-103z"/></g></g></g><g transform="matrix(1,0,0,1,215,207)" opacity="1" style="display: block;"><g opacity="1" transform="matrix(1,0,0,1,0,0)"><path stroke-linecap="round" stroke-linejoin="round" fill-opacity="0" class="primary" stroke="rgb(18,19,49)" stroke-opacity="1" stroke-width="10.5" d=" M125,-103 C45,-103 -47,-103 -125,-103 C-134,1 -148.1280059814453,165.28199768066406 -148.1280059814453,165.28199768066406 C-149.13499450683594,176.96200561523438 -139.92599487304688,187 -128.20199584960938,187 C-128.20199584960938,187 128.20199584960938,187 128.20199584960938,187 C139.92599487304688,187 149.13499450683594,176.96200561523438 148.1280059814453,165.28199768066406 C148.1280059814453,165.28199768066406 134,1 125,-103z"/></g><g opacity="1" transform="matrix(1,0,0,1,0,0)"><path stroke-linecap="round" stroke-linejoin="round" fill-opacity="0" class="primary" stroke="rgb(18,19,49)" stroke-opacity="1" stroke-width="10.5" d=" M-65,-67 C-65,-67 -65,-122 -65,-122 C-65,-157.8990020751953 -35.89899826049805,-187 0,-187 C35.89899826049805,-187 65,-157.8990020751953 65,-122 C65,-122 65,-67 65,-67"/></g></g><g transform="matrix(1,0,0,1,215,270.1629943847656)" opacity="1" style="display: block;"/><g transform="matrix(1,0,0,1,215,270.78399658203125)" opacity="1" style="display: block;"><path class="tertiary" fill="rgb(242,76,0)" fill-opacity="1" d=" M63.284000396728516,-54.069000244140625 C78.90499877929688,-38.448001861572266 78.90499877929688,-13.121000289916992 63.284000396728516,2.5 C63.284000396728516,2.5 0,65.78399658203125 0,65.78399658203125 C0,65.78399658203125 -63.284000396728516,2.5 -63.284000396728516,2.5 C-78.90499877929688,-13.121000289916992 -78.90499877929688,-38.448001861572266 -63.284000396728516,-54.069000244140625 C-47.66299819946289,-69.69000244140625 -22.336999893188477,-69.69000244140625 -6.716000080108643,-54.069000244140625 C-4.007999897003174,-51.361000061035156 -1.7690000534057617,-48.36000061035156 0,-45.16999816894531 C1.7690000534057617,-48.36000061035156 4.007999897003174,-51.361000061035156 6.716000080108643,-54.069000244140625 C22.336999893188477,-69.69000244140625 47.66299819946289,-69.69000244140625 63.284000396728516,-54.069000244140625z"/><g opacity="1" transform="matrix(1,0,0,1,0,0)"/></g><g mask="url(#__lottie_element_2897_1)" style="mix-blend-mode: multiply; display: block;"><g transform="matrix(1,0,0,1,177.5,270.1629943847656)" opacity="0.5"><g opacity="1" transform="matrix(1,0,0,1,0,0)"><path class="tertiary" fill="rgb(242,76,0)" fill-opacity="1" d=" M37.5,-69.1449966430664 C37.5,-69.1449966430664 37.5,101.14900207519531 37.5,101.14900207519531 C36.37799835205078,101.14900207519531 35.255001068115234,100.69400024414062 34.39899826049805,99.78500366210938 C34.39899826049805,99.78500366210938 -55.01900100708008,4.848999977111816 -55.01900100708008,4.848999977111816 C-57.874000549316406,1.8179999589920044 -60.37200164794922,-1.4479999542236328 -62.51300048828125,-4.890999794006348 C-77.5,-28.989999771118164 -75.00199890136719,-61.7400016784668 -55.01900100708008,-82.95600128173828 C-52.16400146484375,-85.98699951171875 -49.0890007019043,-88.63899993896484 -45.84600067138672,-90.91200256347656 C-36.08700180053711,-97.75299835205078 -24.822999954223633,-101.16300201416016 -13.562999725341797,-101.14099884033203 C-9.857000350952148,-101.13400268554688 -6.151000022888184,-100.75599670410156 -2.5,-100.00499725341797 C8.557999610900879,-97.73200225830078 19.118000030517578,-92.04900360107422 27.68199920654297,-82.95600128173828 C31.641000747680664,-78.75299835205078 34.91400146484375,-74.09700012207031 37.5,-69.1449966430664z"/></g></g></g><g transform="matrix(1,0,0,1,215,270.78399658203125)" opacity="1" style="display: block;"><g opacity="1" transform="matrix(1,0,0,1,0,0)"><path stroke-linecap="butt" stroke-linejoin="round" fill-opacity="0" class="primary" stroke="rgb(18,19,49)" stroke-opacity="1" stroke-width="10.5" d=" M63.284000396728516,-54.069000244140625 C78.90499877929688,-38.448001861572266 78.90499877929688,-13.121000289916992 63.284000396728516,2.5 C63.284000396728516,2.5 0,65.78399658203125 0,65.78399658203125 C0,65.78399658203125 -63.284000396728516,2.5 -63.284000396728516,2.5 C-78.90499877929688,-13.121000289916992 -78.90499877929688,-38.448001861572266 -63.284000396728516,-54.069000244140625 C-47.66299819946289,-69.69000244140625 -22.336999893188477,-69.69000244140625 -6.716000080108643,-54.069000244140625 C-4.007999897003174,-51.361000061035156 -1.7690000534057617,-48.36000061035156 0,-45.16999816894531 C1.7690000534057617,-48.36000061035156 4.007999897003174,-51.361000061035156 6.716000080108643,-54.069000244140625 C22.336999893188477,-69.69000244140625 47.66299819946289,-69.69000244140625 63.284000396728516,-54.069000244140625z"/></g></g></g></g></svg>