<svg xmlns="http://www.w3.org/2000/svg" xmlns:xlink="http://www.w3.org/1999/xlink" viewBox="0 0 430 430" width="430" height="430" preserveAspectRatio="xMidYMid meet" style="width: 100%; height: 100%; transform: translate3d(0px, 0px, 0px); content-visibility: visible;"><defs><clipPath id="__lottie_element_16"><rect width="430" height="430" x="0" y="0"/></clipPath><clipPath id="__lottie_element_18"><path d="M0,0 L430,0 L430,430 L0,430z"/></clipPath></defs><g clip-path="url(#__lottie_element_16)"><g clip-path="url(#__lottie_element_18)" transform="matrix(1,0,0,1,0,0)" opacity="1" style="display: block;"><g transform="matrix(0.999447226524353,-0.03324558213353157,0.03324558213353157,0.999447226524353,219.63279724121094,207.26507568359375)" opacity="1" style="display: block;"><g opacity="1" transform="matrix(1,0,0,1,0,0)"><path stroke-linecap="round" stroke-linejoin="round" fill-opacity="0" class="primary" stroke="rgb(255,255,255)" stroke-opacity="1" stroke-width="12" d=" M125,-103 C45,-103 -47,-103 -125,-103 C-134,1 -141.5709686279297,172.30104064941406 -141.5709686279297,172.30104064941406 C-142.01046752929688,184.01620483398438 -132.32579040527344,193.59512329101562 -120.61643981933594,193.02664184570312 C-120.61643981933594,193.02664184570312 135.47793579101562,180.59828186035156 135.47793579101562,180.59828186035156 C147.18727111816406,180.02980041503906 155.89910888671875,169.55812072753906 154.32752990722656,157.9406280517578 C154.32752990722656,157.9406280517578 134,1 125,-103z"/></g><g opacity="1" transform="matrix(1,0,0,1,0,0)"><path stroke-linecap="round" stroke-linejoin="round" fill-opacity="0" class="secondary" stroke="rgb(255,255,255)" stroke-opacity="1" stroke-width="12" d=" M-65,-67 C-65,-67 -65,-122 -65,-122 C-65,-157.8990020751953 -35.89899826049805,-187 0,-187 C35.89899826049805,-187 65,-157.8990020751953 65,-122 C65,-122 65,-67 65,-67"/></g></g><g transform="matrix(0.9977330565452576,-0.06729637086391449,0.06729637086391449,0.9977330565452576,226.67367553710938,270.76611328125)" opacity="1" style="display: block;"><g opacity="1" transform="matrix(0.9998546838760376,-0.017046954482793808,0.017046954482793808,0.9998546838760376,0,0)"><path stroke-linecap="butt" stroke-linejoin="round" fill-opacity="0" class="secondary" stroke="rgb(255,255,255)" stroke-opacity="1" stroke-width="12" d=" M63.284000396728516,-54.069000244140625 C78.90499877929688,-38.448001861572266 78.90499877929688,-13.121000289916992 63.284000396728516,2.5 C63.284000396728516,2.5 0,65.78399658203125 0,65.78399658203125 C0,65.78399658203125 -63.284000396728516,2.5 -63.284000396728516,2.5 C-78.90499877929688,-13.121000289916992 -78.90499877929688,-38.448001861572266 -63.284000396728516,-54.069000244140625 C-47.66299819946289,-69.69000244140625 -22.336999893188477,-69.69000244140625 -6.716000080108643,-54.069000244140625 C-4.007999897003174,-51.361000061035156 -1.7690000534057617,-48.36000061035156 0,-45.16999816894531 C1.7690000534057617,-48.36000061035156 4.007999897003174,-51.361000061035156 6.716000080108643,-54.069000244140625 C22.336999893188477,-69.69000244140625 47.66299819946289,-69.69000244140625 63.284000396728516,-54.069000244140625z"/></g></g></g></g></svg>